<svg width="500" height="500" viewBox="0 0 500 500" fill="none" xmlns="http://www.w3.org/2000/svg">
<g clip-path="url(#clip0)">
<path d="M479.167 208.333H375V20.8333C375 8.33333 366.667 0 354.167 0H145.833C133.333 0 125 8.33333 125 20.8333V208.333H20.8333C8.33333 208.333 0 216.667 0 229.167V500H500V229.167C500 216.667 491.667 208.333 479.167 208.333ZM41.6667 458.333V250H125V458.333H41.6667ZM166.667 458.333V229.167V41.6667H333.333V229.167V458.333H166.667ZM375 458.333V250H458.333V458.333H375Z" fill="#03E09B"/>
<path d="M104.167 270.833H83.3333V312.5H104.167V270.833Z" fill="#03E09B"/>
<path d="M104.167 333.333H83.3333V375H104.167V333.333Z" fill="#03E09B"/>
<path d="M416.667 270.833H395.833V312.5H416.667V270.833Z" fill="#03E09B"/>
<path d="M416.667 333.333H395.833V375H416.667V333.333Z" fill="#03E09B"/>
<path d="M229.167 83.3334H208.333V125H229.167V83.3334Z" fill="#03E09B"/>
<path d="M229.167 145.833H208.333V187.5H229.167V145.833Z" fill="#03E09B"/>
<path d="M229.167 208.333H208.333V250H229.167V208.333Z" fill="#03E09B"/>
<path d="M229.167 270.833H208.333V312.5H229.167V270.833Z" fill="#03E09B"/>
<path d="M229.167 333.333H208.333V375H229.167V333.333Z" fill="#03E09B"/>
<path d="M291.667 83.3334H270.833V125H291.667V83.3334Z" fill="#03E09B"/>
<path d="M291.667 145.833H270.833V187.5H291.667V145.833Z" fill="#03E09B"/>
<path d="M291.667 208.333H270.833V250H291.667V208.333Z" fill="#03E09B"/>
<path d="M291.667 270.833H270.833V312.5H291.667V270.833Z" fill="#03E09B"/>
<path d="M291.667 333.333H270.833V375H291.667V333.333Z" fill="#03E09B"/>
</g>
<defs>
<clipPath id="clip0">
<rect width="500" height="500" fill="white"/>
</clipPath>
</defs>
</svg>
