<svg width="417" height="89" viewBox="0 0 417 89" fill="none" xmlns="http://www.w3.org/2000/svg">
<path d="M0 4.44H39.24C48.44 4.44 55.36 6.8 60 11.52C64.64 16.16 66.96 22.76 66.96 31.32C66.96 39.88 64.52 46.56 59.64 51.36C54.84 56.08 47.64 58.44 38.04 58.44H17.4V86.76H0V4.44ZM37.68 43.68C41.44 43.68 44.32 42.6 46.32 40.44C48.32 38.28 49.32 35.24 49.32 31.32C49.32 27.48 48.32 24.52 46.32 22.44C44.32 20.28 41.44 19.2 37.68 19.2H17.4V43.68H37.68Z" fill="#F4FAFF"/>
<path d="M99.8391 88.2C94.9591 88.2 90.4791 86.92 86.3991 84.36C82.3191 81.8 80.2791 77.16 80.2791 70.44C80.2791 62.36 83.5991 56.64 90.2391 53.28C96.8791 49.84 106.279 48.12 118.439 48.12V43.68C118.439 40.88 117.799 38.72 116.519 37.2C115.319 35.68 112.999 34.92 109.559 34.92C105.879 34.92 103.239 35.48 101.639 36.6C100.119 37.72 99.3591 39.04 99.3591 40.56V42.36H83.5191C83.4391 41.88 83.3991 41 83.3991 39.72C83.3991 34.44 85.7191 30.2 90.3591 27C95.0791 23.8 101.319 22.2 109.079 22.2C117.719 22.2 124.159 23.96 128.399 27.48C132.719 31 134.879 36.08 134.879 42.72V70.56C134.879 72 135.279 73.08 136.079 73.8C136.879 74.44 137.879 74.76 139.079 74.76H142.439V86.28C139.879 87.56 136.719 88.2 132.959 88.2C129.679 88.2 126.919 87.48 124.679 86.04C122.519 84.6 121.039 82.56 120.239 79.92H119.519C117.199 82.64 114.519 84.72 111.479 86.16C108.519 87.52 104.639 88.2 99.8391 88.2ZM104.999 75.24C109.639 75.24 113.039 73.96 115.199 71.4C117.359 68.76 118.439 65.28 118.439 60.96V59.04C104.119 59.04 96.9591 62.24 96.9591 68.64C96.9591 70.64 97.5991 72.24 98.8791 73.44C100.239 74.64 102.279 75.24 104.999 75.24Z" fill="#F4FAFF"/>
<path d="M191.959 88.2C187.879 88.2 184.159 87.4 180.799 85.8C177.439 84.12 174.759 81.68 172.759 78.48H171.919L170.839 86.76H156.799V0H173.239V30.96H173.959C175.799 28.16 178.319 26 181.519 24.48C184.799 22.96 188.559 22.2 192.799 22.2C200.159 22.2 206.039 24.96 210.439 30.48C214.919 36 217.159 44.2 217.159 55.08C217.159 66.2 214.959 74.52 210.559 80.04C206.159 85.48 199.959 88.2 191.959 88.2ZM186.679 73.92C191.559 73.92 195.039 72.48 197.119 69.6C199.199 66.64 200.239 62.2 200.239 56.28V54.12C200.239 48.2 199.199 43.8 197.119 40.92C195.039 37.96 191.559 36.48 186.679 36.48C177.719 36.48 173.239 42.44 173.239 54.36V56.28C173.239 68.04 177.719 73.92 186.679 73.92Z" fill="#F4FAFF"/>
<path d="M273.037 0H289.477V15.6H273.037V0ZM273.037 23.64H289.477V86.76H273.037V23.64Z" fill="#F4FAFF"/>
<path d="M328.275 88.2C322.355 88.2 318.115 86.6 315.555 83.4C312.995 80.2 311.715 76.16 311.715 71.28V37.08H304.155V23.64H312.075L314.835 5.88H328.155V23.64H339.075V37.08H328.155V69.6C328.155 73.04 329.875 74.76 333.315 74.76H339.075V86.28C337.715 86.76 335.995 87.2 333.915 87.6C331.915 88 330.035 88.2 328.275 88.2Z" fill="#F4FAFF"/>
<path d="M384.196 88.2C373.396 88.2 365.356 85.52 360.076 80.16C354.796 74.8 352.156 66.48 352.156 55.2C352.156 43.92 354.796 35.6 360.076 30.24C365.356 24.88 373.396 22.2 384.196 22.2C394.996 22.2 403.036 24.88 408.316 30.24C413.676 35.6 416.356 43.92 416.356 55.2C416.356 66.48 413.676 74.8 408.316 80.16C403.036 85.52 394.996 88.2 384.196 88.2ZM384.196 74.76C389.556 74.76 393.436 73.24 395.836 70.2C398.236 67.08 399.436 62.4 399.436 56.16V54.24C399.436 48 398.236 43.36 395.836 40.32C393.436 37.2 389.556 35.64 384.196 35.64C378.836 35.64 374.956 37.2 372.556 40.32C370.236 43.36 369.076 48 369.076 54.24V56.16C369.076 62.4 370.236 67.08 372.556 70.2C374.956 73.24 378.836 74.76 384.196 74.76Z" fill="#F4FAFF"/>
<path fill-rule="evenodd" clip-rule="evenodd" d="M229.958 0H256.398V86.76H229.958V0ZM245 2.5V16H253V2.5H245ZM233.5 16V2.5H241.5V16H233.5ZM233.5 18V31.5H241.5V18H233.5ZM245 31.5V18H253V31.5H245ZM233.5 34V47.5H241.5V34H233.5ZM245 47.5V34H253V47.5H245ZM233.5 50V63.5H241.5V50H233.5ZM245 63.5V50H253V63.5H245Z" fill="#F4FAFF"/>
</svg>
