<svg width="40" height="40" viewBox="0 0 40 40" fill="none" xmlns="http://www.w3.org/2000/svg">
<path d="M30 3.33325H9.99999C8.16166 3.33325 6.66666 4.82825 6.66666 6.66659V34.9999C6.66666 35.4419 6.84225 35.8659 7.15481 36.1784C7.46737 36.491 7.8913 36.6666 8.33332 36.6666H31.6667C32.1087 36.6666 32.5326 36.491 32.8452 36.1784C33.1577 35.8659 33.3333 35.4419 33.3333 34.9999V6.66659C33.3333 4.82825 31.8383 3.33325 30 3.33325ZM30 33.3333H9.99999V6.66659H30V33.3333Z" fill="#F4FAFF"/>
<path d="M13.3333 10H18.3333V13.3333H13.3333V10ZM21.6667 10H26.6667V13.3333H21.6667V10ZM13.3333 16.6667H18.3333V20H13.3333V16.6667ZM21.6667 16.7183H26.6667V20H21.6667V16.7183ZM13.3333 23.3333H18.3333V26.6667H13.3333V23.3333ZM21.6667 23.3333H26.6667V26.6667H21.6667V23.3333Z" fill="#F4FAFF"/>
</svg>
