<svg width="64" height="64" viewBox="0 0 64 64" fill="none" xmlns="http://www.w3.org/2000/svg">
<g clip-path="url(#clip0)">
<path d="M61.552 49.716L61.258 48.826C60.552 46.736 58.25 44.556 56.132 43.982L48.296 41.842C46.17 41.264 43.14 42.042 41.588 43.596L38.752 46.432C28.446 43.646 20.364 35.564 17.58 25.26L20.416 22.424C21.97 20.87 22.748 17.842 22.172 15.716L20.036 7.87604C19.458 5.75004 17.274 3.44804 15.188 2.75004L14.294 2.45004C12.204 1.75404 9.22401 2.45804 7.66801 4.01204L3.42801 8.25804C2.66801 9.01204 2.18601 11.168 2.18601 11.176C2.03801 24.644 7.31602 37.626 16.846 47.148C26.35 56.652 39.278 61.926 52.708 61.812C52.778 61.812 54.998 61.336 55.754 60.582L59.994 56.34C61.544 54.792 62.25 51.806 61.552 49.716Z" fill="#03E09B"/>
</g>
<defs>
<clipPath id="clip0">
<rect width="64" height="64" fill="white"/>
</clipPath>
</defs>
</svg>
