<svg width="64" height="64" viewBox="0 0 64 64" fill="none" xmlns="http://www.w3.org/2000/svg">
<g clip-path="url(#clip0)">
<path fill-rule="evenodd" clip-rule="evenodd" d="M27.477 48.0669H33.919V32.4757H38.2166L38.7859 27.1035H33.919L33.9257 24.4136C33.9257 23.0133 34.0595 22.2615 36.0692 22.2615H38.7553V16.8884H34.4568C29.2938 16.8884 27.477 19.4952 27.477 23.8778V27.1035H24.2589V32.4767H27.477V48.0669ZM31.5224 61.1344C15.6962 61.1344 2.86566 48.3038 2.86566 32.4776C2.86566 16.6505 15.6962 3.82092 31.5224 3.82092C47.3485 3.82092 60.1791 16.6505 60.1791 32.4776C60.1791 48.3038 47.3485 61.1344 31.5224 61.1344Z" fill="#00DD98"/>
</g>
<defs>
<clipPath id="clip0">
<rect width="64" height="64" fill="white"/>
</clipPath>
</defs>
</svg>
