<svg width="64" height="64" viewBox="0 0 64 64" fill="none" xmlns="http://www.w3.org/2000/svg">
<g clip-path="url(#clip0)">
<path d="M31.8307 18.8501C23.9294 18.8501 17.3827 25.284 17.3827 33.2981C17.3827 41.3122 23.8166 47.746 31.8307 47.746C39.8448 47.746 46.2787 41.1993 46.2787 33.2981C46.2787 25.3968 39.7319 18.8501 31.8307 18.8501ZM31.8307 42.5538C26.7513 42.5538 22.5749 38.3774 22.5749 33.2981C22.5749 28.2187 26.7513 24.0423 31.8307 24.0423C36.91 24.0423 41.0864 28.2187 41.0864 33.2981C41.0864 38.3774 36.91 42.5538 31.8307 42.5538Z" fill="#03E09B" stroke="#03E09B"/>
<path d="M46.843 21.7848C48.6509 21.7848 50.1164 20.3192 50.1164 18.5114C50.1164 16.7036 48.6509 15.238 46.843 15.238C45.0352 15.238 43.5697 16.7036 43.5697 18.5114C43.5697 20.3192 45.0352 21.7848 46.843 21.7848Z" fill="#03E09B" stroke="#03E09B"/>
<path d="M55.3086 10.0458C52.3739 6.99821 48.1975 5.41797 43.4568 5.41797H20.2046C10.3845 5.41797 3.83774 11.9647 3.83774 21.7848V44.9241C3.83774 49.7778 5.41798 53.9541 8.57848 57.0017C11.6261 59.9365 15.6896 61.4039 20.3175 61.4039H43.3439C48.1975 61.4039 52.261 59.8236 55.1958 57.0017C58.2434 54.067 59.8236 49.8906 59.8236 45.037V21.7848C59.8236 17.0441 58.2434 12.9806 55.3086 10.0458ZM54.8571 45.037C54.8571 48.5361 53.6155 51.358 51.5838 53.2769C49.552 55.1958 46.7302 56.2116 43.3439 56.2116H20.3175C16.9312 56.2116 14.1093 55.1958 12.0776 53.2769C10.0459 51.2451 9.02998 48.4233 9.02998 44.9241V21.7848C9.02998 18.3986 10.0459 15.5767 12.0776 13.545C13.9965 11.6261 16.9312 10.6102 20.3175 10.6102H43.5697C46.9559 10.6102 49.7778 11.6261 51.8095 13.6578C53.7284 15.6896 54.8571 18.5114 54.8571 21.7848V45.037Z" fill="#03E09B" stroke="#03E09B"/>
</g>
<defs>
<clipPath id="clip0">
<rect width="64" height="64" fill="white"/>
</clipPath>
</defs>
</svg>
